<?xml version="1.0" encoding="utf-8"?>
<!-- Generator: Adobe Illustrator 17.0.2, SVG Export Plug-In . SVG Version: 6.00 Build 0)  -->
<!DOCTYPE svg PUBLIC "-//W3C//DTD SVG 1.1//EN" "http://www.w3.org/Graphics/SVG/1.1/DTD/svg11.dtd">
<svg version="1.1" id="Layer_1" xmlns="http://www.w3.org/2000/svg" xmlns:xlink="http://www.w3.org/1999/xlink" x="0px" y="0px"
	 width="625px" height="600px" viewBox="0 0 625 600" enable-background="new 0 0 625 600" xml:space="preserve">
<path fill="#42A2CE" d="M312.61,3.792C141.774,3.792,3.282,118.131,3.282,259.167c0,73.719,37.884,140.104,98.404,186.723
	l121.57,147.117c3.669,4.437,9.409,4.235,12.759-0.447l56.23-78.638c6.74,0.362,13.512,0.618,20.365,0.618
	c170.838,0,309.335-114.336,309.335-255.374C621.944,118.131,483.448,3.792,312.61,3.792z M312.61,453.786
	c-130.191,0-235.746-87.133-235.746-194.619c0-107.479,105.555-194.623,235.746-194.623c130.189,0,235.76,87.144,235.76,194.623
	C548.37,366.653,442.798,453.786,312.61,453.786z"/>
<path fill="#42A2CE" d="M238.347,287.266c-21.236,0-38.463,17.216-38.463,38.462c0,21.258,17.227,38.468,38.463,38.468
	c21.251,0,38.462-17.21,38.462-38.468C276.81,304.482,259.598,287.266,238.347,287.266z"/>
<path fill="#42A2CE" d="M388.444,287.266c-21.24,0-38.472,17.216-38.472,38.462c0,21.258,17.232,38.468,38.472,38.468
	c21.244,0,38.462-17.21,38.462-38.468C426.906,304.482,409.688,287.266,388.444,287.266z"/>
</svg>
